<mxfile host="65bd71144e">
    <diagram id="yC8r_omOtV8NfiKUrJmH" name="Page-1">
        <mxGraphModel dx="227" dy="425" grid="1" gridSize="10" guides="1" tooltips="1" connect="1" arrows="1" fold="1" page="1" pageScale="1" pageWidth="850" pageHeight="1100" math="0" shadow="0">
            <root>
                <mxCell id="0"/>
                <mxCell id="1" parent="0"/>
                <mxCell id="7" value="" style="edgeStyle=none;shape=flexArrow;html=1;" edge="1" parent="1" source="2" target="6">
                    <mxGeometry relative="1" as="geometry"/>
                </mxCell>
                <mxCell id="2" value="greet()" style="whiteSpace=wrap;html=1;" vertex="1" parent="1">
                    <mxGeometry x="280" y="90" width="120" height="60" as="geometry"/>
                </mxCell>
                <mxCell id="5" style="edgeStyle=none;shape=flexArrow;html=1;" edge="1" parent="1" source="3" target="2">
                    <mxGeometry relative="1" as="geometry"/>
                </mxCell>
                <mxCell id="3" value="name &lt;font style=&quot;color: light-dark(rgb(0, 0, 0), rgb(255, 255, 51));&quot;&gt;(string)&lt;/font&gt;" style="text;strokeColor=none;align=center;fillColor=none;html=1;verticalAlign=middle;whiteSpace=wrap;rounded=0;" vertex="1" parent="1">
                    <mxGeometry x="170" y="105" width="60" height="30" as="geometry"/>
                </mxCell>
                <mxCell id="6" value="Execution output: (&lt;font style=&quot;color: light-dark(rgb(0, 0, 0), rgb(255, 255, 51));&quot;&gt;string&lt;/font&gt;), none" style="text;strokeColor=none;align=center;fillColor=none;html=1;verticalAlign=middle;whiteSpace=wrap;rounded=0;" vertex="1" parent="1">
                    <mxGeometry x="470" y="105" width="100" height="30" as="geometry"/>
                </mxCell>
                <mxCell id="8" value="" style="edgeStyle=none;shape=flexArrow;html=1;" edge="1" parent="1" source="9" target="12">
                    <mxGeometry relative="1" as="geometry"/>
                </mxCell>
                <mxCell id="9" value="square_list()" style="whiteSpace=wrap;html=1;" vertex="1" parent="1">
                    <mxGeometry x="280" y="210" width="120" height="60" as="geometry"/>
                </mxCell>
                <mxCell id="10" style="edgeStyle=none;shape=flexArrow;html=1;" edge="1" parent="1" source="11" target="9">
                    <mxGeometry relative="1" as="geometry"/>
                </mxCell>
                <mxCell id="11" value="list (array of &lt;font style=&quot;color: light-dark(rgb(0, 0, 0), rgb(255, 255, 51));&quot;&gt;float&lt;/font&gt;/&lt;font style=&quot;color: light-dark(rgb(0, 0, 0), rgb(255, 255, 51));&quot;&gt;int&lt;/font&gt;)" style="text;strokeColor=none;align=center;fillColor=none;html=1;verticalAlign=middle;whiteSpace=wrap;rounded=0;" vertex="1" parent="1">
                    <mxGeometry x="170" y="225" width="60" height="30" as="geometry"/>
                </mxCell>
                <mxCell id="12" value="Execution output: (array of &lt;font style=&quot;color: light-dark(rgb(0, 0, 0), rgb(255, 255, 51));&quot;&gt;float&lt;/font&gt;/&lt;font style=&quot;color: light-dark(rgb(0, 0, 0), rgb(255, 255, 51));&quot;&gt;int&lt;/font&gt;), list" style="text;strokeColor=none;align=center;fillColor=none;html=1;verticalAlign=middle;whiteSpace=wrap;rounded=0;" vertex="1" parent="1">
                    <mxGeometry x="470" y="225" width="100" height="30" as="geometry"/>
                </mxCell>
                <mxCell id="13" value="" style="edgeStyle=none;shape=flexArrow;html=1;" edge="1" parent="1" source="14" target="17">
                    <mxGeometry relative="1" as="geometry"/>
                </mxCell>
                <mxCell id="14" value="goldilocks()" style="whiteSpace=wrap;html=1;" vertex="1" parent="1">
                    <mxGeometry x="280" y="330" width="120" height="60" as="geometry"/>
                </mxCell>
                <mxCell id="15" style="edgeStyle=none;shape=flexArrow;html=1;" edge="1" parent="1" source="16" target="14">
                    <mxGeometry relative="1" as="geometry"/>
                </mxCell>
                <mxCell id="16" value="length (&lt;font style=&quot;color: light-dark(rgb(0, 0, 0), rgb(255, 255, 51));&quot;&gt;float/int&lt;/font&gt;)" style="text;strokeColor=none;align=center;fillColor=none;html=1;verticalAlign=middle;whiteSpace=wrap;rounded=0;" vertex="1" parent="1">
                    <mxGeometry x="170" y="345" width="60" height="30" as="geometry"/>
                </mxCell>
                <mxCell id="17" value="Execution output: (&lt;font style=&quot;color: light-dark(rgb(0, 0, 0), rgb(255, 255, 51));&quot;&gt;string&lt;/font&gt;), none" style="text;strokeColor=none;align=center;fillColor=none;html=1;verticalAlign=middle;whiteSpace=wrap;rounded=0;" vertex="1" parent="1">
                    <mxGeometry x="470" y="345" width="100" height="30" as="geometry"/>
                </mxCell>
                <mxCell id="18" value="" style="edgeStyle=none;shape=flexArrow;html=1;" edge="1" parent="1" source="19" target="22">
                    <mxGeometry relative="1" as="geometry"/>
                </mxCell>
                <mxCell id="19" value="fibonacci_stop()" style="whiteSpace=wrap;html=1;" vertex="1" parent="1">
                    <mxGeometry x="280" y="450" width="120" height="60" as="geometry"/>
                </mxCell>
                <mxCell id="20" style="edgeStyle=none;shape=flexArrow;html=1;" edge="1" parent="1" source="21" target="19">
                    <mxGeometry relative="1" as="geometry"/>
                </mxCell>
                <mxCell id="21" value="number (&lt;font style=&quot;color: light-dark(rgb(0, 0, 0), rgb(255, 255, 51));&quot;&gt;float/int&lt;/font&gt;)" style="text;strokeColor=none;align=center;fillColor=none;html=1;verticalAlign=middle;whiteSpace=wrap;rounded=0;" vertex="1" parent="1">
                    <mxGeometry x="170" y="465" width="60" height="30" as="geometry"/>
                </mxCell>
                <mxCell id="22" value="Execution output: (&lt;font style=&quot;color: light-dark(rgb(255, 255, 51), rgb(255, 255, 51));&quot;&gt;string&lt;/font&gt;), none" style="text;strokeColor=none;align=center;fillColor=none;html=1;verticalAlign=middle;whiteSpace=wrap;rounded=0;" vertex="1" parent="1">
                    <mxGeometry x="470" y="465" width="100" height="30" as="geometry"/>
                </mxCell>
                <mxCell id="23" value="" style="edgeStyle=none;shape=flexArrow;html=1;" edge="1" source="24" target="27" parent="1">
                    <mxGeometry relative="1" as="geometry"/>
                </mxCell>
                <mxCell id="24" value="clean pitch()" style="whiteSpace=wrap;html=1;" vertex="1" parent="1">
                    <mxGeometry x="280" y="570" width="120" height="60" as="geometry"/>
                </mxCell>
                <mxCell id="25" style="edgeStyle=none;shape=flexArrow;html=1;" edge="1" source="26" target="24" parent="1">
                    <mxGeometry relative="1" as="geometry"/>
                </mxCell>
                <mxCell id="26" value="measurements,status (&lt;font style=&quot;color: light-dark(rgb(0, 0, 0), rgb(255, 255, 51));&quot;&gt;float/int, int&lt;/font&gt;)" style="text;strokeColor=none;align=center;fillColor=none;html=1;verticalAlign=middle;whiteSpace=wrap;rounded=0;" vertex="1" parent="1">
                    <mxGeometry x="80" y="585" width="150" height="30" as="geometry"/>
                </mxCell>
                <mxCell id="27" value="Execution output: (&lt;font style=&quot;color: light-dark(rgb(0, 0, 0), rgb(255, 255, 51));&quot;&gt;string&lt;/font&gt;), none" style="text;strokeColor=none;align=center;fillColor=none;html=1;verticalAlign=middle;whiteSpace=wrap;rounded=0;" vertex="1" parent="1">
                    <mxGeometry x="470" y="585" width="100" height="30" as="geometry"/>
                </mxCell>
            </root>
        </mxGraphModel>
    </diagram>
</mxfile>